<svg xmlns="http://www.w3.org/2000/svg" version="1.1" xmlns:xlink="http://www.w3.org/1999/xlink" width="1024.000000pt" height="1024.000000pt"><svg xmlns="http://www.w3.org/2000/svg" version="1.0" width="1024.000000pt" height="1024.000000pt" viewBox="0 0 1024.000000 1024.000000" preserveAspectRatio="xMidYMid meet"><g transform="translate(0.000000,1024.000000) scale(0.100000,-0.100000)" fill="#000000" stroke="none"><path d="M5178 8034 c-31 -16 -58 -61 -58 -95 0 -23 39 -89 53 -89 28 0 -8 -41 -171 -194 l-62 -59 -33 31 c-17 17 -43 35 -58 40 -81 31 -166 -50 -157 -149 l5 -48 -56 -17 c-77 -22 -114 -43 -204 -114 -112 -88 -827 -798 -843 -837 -22 -51 -17 -117 12 -174 l26 -51 -101 -103 c-56 -56 -101 -111 -102 -121 -3 -50 5 -82 27 -117 l25 -38 -180 -176 c-155 -151 -193 -195 -273 -312 -51 -75 -141 -203 -200 -285 -59 -82 -108 -154 -108 -161 0 -7 6 -18 14 -24 18 -15 37 -6 121 59 49 37 275 197 431 304 17 11 99 86 182 165 192 183 192 183 264 175 31 -4 69 -3 84 0 14 4 72 52 129 107 l103 100 52 -33 c45 -28 63 -33 114 -33 94 0 132 25 321 208 92 89 172 164 178 166 12 5 1 -2357 -12 -2411 -13 -56 -45 -93 -103 -118 l-53 -23 -1255 5 c-1147 5 -1258 7 -1295 22 -53 23 -81 51 -100 100 -14 37 -15 236 -13 1881 3 1725 4 1843 20 1867 10 15 34 39 55 55 l36 28 1211 5 c781 3 1217 9 1228 15 33 20 167 130 167 138 1 4 -25 20 -56 35 l-58 27 -1275 0 -1275 0 -63 -34 c-90 -49 -156 -125 -183 -209 -20 -67 -21 -73 -25 -1907 -4 -1221 -2 -1861 5 -1903 26 -163 152 -291 316 -322 43 -8 420 -10 1355 -8 l1295 3 57 27 c119 56 207 175 227 308 6 39 12 495 13 1140 2 591 4 1168 6 1281 l3 206 117 124 c65 68 128 139 140 156 26 36 72 164 72 199 0 18 13 29 57 51 87 43 124 114 92 176 -7 12 -30 42 -52 66 l-40 44 121 120 121 119 31 -26 c57 -47 148 -27 176 39 21 50 17 87 -11 126 -31 41 -429 443 -467 470 -31 23 -82 24 -120 3z m206 -404 c20 -22 36 -46 36 -52 0 -16 -198 -206 -223 -214 -14 -5 -30 5 -61 35 l-41 41 115 115 c63 63 120 115 126 115 6 0 28 -18 48 -40z m-246 -576 c8 -16 7 -26 -7 -47 l-17 -26 -95 97 c-52 53 -123 127 -157 164 l-63 67 17 32 16 33 148 -150 c80 -82 152 -158 158 -170z m-401 -21 c160 -169 226 -242 234 -257 10 -17 -8 -56 -27 -56 -8 0 -42 26 -73 58 -99 99 -321 339 -321 346 0 9 41 45 51 46 4 0 65 -62 136 -137z m-321 -126 c16 -18 65 -73 108 -122 44 -50 116 -127 160 -173 l81 -83 -25 -19 c-14 -11 -30 -20 -35 -20 -9 0 -245 234 -350 347 l-39 43 29 30 c16 16 32 30 35 30 4 0 20 -15 36 -33z m87 -629 l-27 -28 -70 68 c-94 89 -269 270 -297 306 l-23 29 30 25 29 25 192 -199 192 -199 -26 -27z m-699 -149 l18 -41 -47 -48 -48 -49 -25 20 c-14 10 -34 19 -46 19 -16 0 -6 15 49 70 38 39 72 70 75 70 3 0 13 -19 24 -41z"></path><path d="M6435 5620 c-51 -81 -153 -129 -283 -135 -36 -2 -126 6 -201 17 -190 27 -405 22 -506 -14 -152 -53 -248 -143 -286 -270 -26 -85 -22 -155 12 -223 34 -69 65 -88 138 -88 61 0 106 19 118 49 3 9 -10 29 -36 53 -37 35 -41 42 -41 88 0 129 140 224 329 223 74 -1 156 -12 167 -23 3 -3 -30 -39 -73 -81 -87 -82 -126 -148 -143 -236 -6 -30 -22 -165 -35 -300 -31 -308 -33 -319 -51 -408 -13 -62 -22 -80 -55 -113 -32 -32 -46 -39 -78 -39 -49 0 -63 17 -69 86 -3 36 -10 58 -19 61 -47 18 -106 -67 -107 -153 0 -65 22 -99 77 -125 67 -30 103 -25 192 27 181 104 200 113 273 125 67 11 102 28 102 48 0 4 -16 25 -36 45 -36 37 -36 37 -31 109 4 59 39 383 62 577 26 212 60 296 131 326 18 8 67 14 107 14 87 0 176 26 257 75 69 42 111 86 143 151 36 71 43 118 23 149 -24 37 -52 32 -81 -15z"></path><path d="M7459 5459 c-56 -110 -124 -191 -221 -266 -49 -37 -59 -49 -56 -72 3 -25 6 -26 51 -23 26 2 47 0 47 -3 0 -3 -6 -49 -14 -103 -8 -53 -17 -117 -20 -142 -44 -351 -46 -422 -13 -471 45 -67 115 -77 212 -31 111 53 211 202 136 202 -11 0 -29 -13 -41 -30 -35 -49 -90 -36 -110 25 -12 35 -11 41 26 340 3 28 11 92 17 144 l12 94 58 12 c62 12 127 62 127 97 0 28 -23 32 -95 15 -36 -8 -68 -11 -70 -7 -2 4 7 72 20 151 30 174 30 169 5 169 -14 0 -32 -25 -71 -101z"></path><path d="M6987 5392 c-8 -9 -31 -48 -52 -85 -48 -87 -120 -172 -184 -217 -49 -35 -71 -74 -52 -93 5 -5 28 -8 50 -5 l41 4 0 -36 c-1 -35 -8 -94 -50 -430 -20 -161 -21 -179 -7 -213 17 -40 68 -77 107 -77 65 1 156 66 214 155 41 62 45 81 15 90 -17 6 -27 0 -46 -24 -45 -57 -93 -29 -93 55 0 69 55 497 66 515 2 5 27 11 55 15 56 8 104 44 115 88 10 43 -5 49 -80 30 -37 -9 -70 -14 -73 -10 -4 3 -1 41 5 84 16 104 15 159 -2 165 -8 3 -21 -2 -29 -11z"></path><path d="M8714 5350 c-105 -23 -220 -132 -289 -275 -59 -122 -79 -200 -78 -310 0 -145 52 -243 155 -296 128 -65 322 57 431 271 103 201 99 399 -11 521 -67 74 -137 104 -208 89z m24 -187 c38 -57 52 -110 52 -208 0 -174 -69 -325 -147 -325 -34 0 -56 20 -78 73 -20 49 -20 219 0 298 26 99 88 189 131 189 13 0 30 -11 42 -27z"></path><path d="M4085 5326 c-16 -7 -178 -166 -360 -352 -181 -186 -405 -415 -498 -509 l-167 -170 -279 282 c-289 291 -303 303 -382 303 -38 0 -106 -53 -114 -89 -15 -69 2 -100 109 -200 56 -52 216 -210 357 -352 161 -162 266 -260 283 -265 41 -10 79 12 153 89 37 40 288 296 558 570 511 519 537 549 521 612 -4 16 -22 43 -41 62 -37 37 -85 43 -140 19z"></path><path d="M7975 5283 c-36 -9 -124 -74 -168 -123 -99 -110 -161 -288 -162 -465 0 -121 22 -182 92 -246 86 -79 149 -86 267 -29 110 52 188 151 254 323 33 85 36 100 36 202 1 98 -2 116 -25 165 -34 73 -71 115 -133 150 -50 29 -105 37 -161 23z m52 -165 c49 -54 58 -87 58 -213 0 -201 -62 -355 -143 -355 -81 0 -124 161 -88 330 19 89 76 211 113 240 32 25 35 25 60 -2z"></path><path d="M6349 5067 c-67 -19 -139 -68 -213 -148 -71 -74 -80 -103 -42 -120 43 -20 90 -2 156 57 68 60 97 76 128 67 27 -7 45 -52 37 -96 -6 -33 -11 -36 -73 -57 -218 -73 -344 -188 -377 -346 -29 -138 -12 -194 73 -236 86 -42 185 -20 276 61 27 25 41 32 44 23 2 -7 14 -25 27 -39 18 -22 31 -27 71 -27 41 -1 58 5 108 39 54 36 121 112 121 137 0 6 -8 16 -17 22 -15 9 -23 5 -48 -23 -25 -27 -33 -31 -45 -21 -21 17 -19 64 11 252 14 89 26 202 27 249 2 78 0 89 -26 128 -46 70 -148 103 -238 78z m40 -472 c-12 -108 -26 -159 -60 -205 -27 -37 -74 -70 -99 -70 -6 0 -22 11 -35 25 -54 53 -16 187 75 267 50 45 112 80 121 70 4 -4 3 -43 -2 -87z"></path><path d="M7737 4186 c-12 -12 -44 -62 -71 -110 -59 -102 -138 -194 -202 -231 -40 -24 -45 -30 -42 -58 3 -32 4 -32 62 -35 l58 -3 -6 -32 c-3 -18 -10 -68 -16 -112 -6 -44 -13 -93 -15 -110 -15 -93 -35 -287 -35 -330 0 -59 25 -107 69 -130 39 -20 114 -19 154 1 81 42 177 146 177 193 0 10 -7 24 -15 31 -13 11 -22 7 -53 -23 -42 -41 -70 -46 -95 -19 -29 32 -29 72 -2 277 14 110 29 224 32 253 7 60 22 72 90 72 28 0 44 8 74 39 37 36 50 73 31 85 -5 3 -44 -2 -86 -10 -43 -9 -80 -13 -83 -10 -3 3 2 59 11 123 9 65 16 125 16 134 0 28 -29 31 -53 5z"></path><path d="M6470 4055 c-208 -32 -215 -33 -235 -55 -18 -19 -18 -22 -2 -56 9 -19 17 -40 17 -47 0 -24 -208 -536 -225 -556 -11 -11 -16 0 -28 55 -46 204 -68 333 -68 395 0 60 4 78 31 125 17 31 29 62 26 70 -11 30 -242 -9 -350 -60 -163 -76 -316 -324 -253 -411 17 -22 57 -15 87 15 16 16 19 28 14 58 -4 29 -1 50 15 81 30 57 89 121 113 121 19 0 20 -4 14 -51 -9 -68 -90 -379 -133 -513 -41 -126 -112 -300 -150 -365 -93 -160 -225 -237 -282 -165 -12 15 -21 37 -21 50 0 37 -11 54 -34 54 -83 0 -139 -159 -83 -240 36 -53 89 -75 182 -75 70 0 87 4 135 30 30 16 87 61 126 100 123 122 184 281 340 878 10 41 20 63 24 55 11 -19 54 -177 79 -283 19 -85 47 -300 53 -409 3 -56 25 -79 56 -60 9 6 58 111 108 235 123 304 275 624 286 603 3 -5 1 -61 -3 -124 -4 -63 -10 -162 -13 -220 -19 -333 -22 -347 -77 -407 -42 -45 -44 -50 -30 -72 8 -13 33 -13 178 -2 185 14 208 17 223 26 13 8 13 42 0 50 -6 4 -20 25 -33 48 -20 39 -22 55 -22 212 0 94 3 249 8 345 18 415 22 437 98 503 61 53 64 81 9 83 -19 1 -100 -8 -180 -21z"></path><path d="M8252 3984 c-101 -51 -226 -190 -277 -309 -56 -131 -70 -285 -35 -397 63 -206 226 -245 424 -104 106 75 199 199 182 242 -13 34 -55 14 -128 -59 -79 -80 -126 -103 -183 -93 -19 4 -43 18 -54 33 -24 29 -44 94 -33 103 4 3 57 38 116 79 202 139 266 218 266 330 0 156 -141 245 -278 175z m67 -148 c16 -20 25 -78 17 -119 -8 -44 -64 -108 -137 -158 -71 -48 -78 -41 -60 58 13 68 46 145 88 201 26 35 71 44 92 18z"></path><path d="M7075 3841 c-16 -4 -46 -16 -65 -26 -42 -21 -260 -239 -260 -259 0 -21 40 -46 73 -46 49 0 91 25 145 88 52 60 106 90 138 78 23 -9 34 -53 26 -107 l-7 -50 -84 -34 c-180 -74 -282 -157 -352 -288 -26 -49 -32 -72 -33 -126 -2 -201 170 -244 364 -90 l50 39 27 -30 c61 -68 173 -43 264 59 53 60 61 94 22 99 -14 2 -27 -5 -39 -22 -20 -32 -41 -33 -55 -2 -8 18 -5 72 16 227 47 345 46 366 -11 429 -48 53 -145 80 -219 61z m30 -502 c-11 -152 -50 -240 -118 -272 -57 -27 -82 -22 -102 20 -35 73 15 190 116 273 57 47 88 68 103 69 5 1 5 -39 1 -90z"></path><path d="M7690 2803 c-243 -10 -674 -77 -1070 -167 -352 -80 -828 -235 -851 -277 -27 -50 66 -130 159 -137 49 -3 71 1 145 32 159 66 430 164 569 206 510 153 1077 222 1433 174 132 -17 133 -17 145 6 18 35 2 58 -63 89 -105 52 -287 80 -467 74z"></path></g></svg><style>@media (prefers-color-scheme: light) { :root { filter: none; } }
@media (prefers-color-scheme: dark) { :root { filter: none; } }
</style></svg>